<?xml version="1.0" encoding="utf-8"?>
<!-- Generator: Adobe Illustrator 19.0.0, SVG Export Plug-In . SVG Version: 6.00 Build 0)  -->
<svg version="1.1" id="Layer_1" xmlns="http://www.w3.org/2000/svg" xmlns:xlink="http://www.w3.org/1999/xlink" x="0px" y="0px"
	 viewBox="0 0 16.5 21" style="enable-background:new 0 0 16.5 21;" xml:space="preserve">
<style type="text/css">
	.st0{fill:#302F2F;}
	.st1{fill:none;stroke:#302F2F;stroke-miterlimit:10;}
</style>
<g id="XMLID_1_">
	<g id="XMLID_2_">
		<path id="XMLID_3_" class="st0" d="M13,4.6c0-0.6-0.4-1-1-1H1.5c-0.6,0-1,0.4-1,1v6.7h3.8c0.3-1.1,1.2-1.9,2.4-1.9
			s2.1,0.8,2.4,1.9H13V4.6z"/>
		<path id="XMLID_7_" class="st0" d="M6.7,14.5c-1.2,0-2.1-0.8-2.4-1.9H0.5v6.7c0,0.6,0.4,1,1,1H12c0.6,0,1-0.4,1-1v-6.7H9.1
			C8.9,13.7,7.9,14.5,6.7,14.5z"/>
	</g>
	<circle id="XMLID_9_" class="st0" cx="6.7" cy="12" r="1.2"/>
	<g id="XMLID_4_">
		<path id="XMLID_5_" class="st1" d="M3,16.8c0,0.6,0.4,1,1,1h10.5c0.6,0,1-0.4,1-1V2.1c0-0.6-0.4-1-1-1H4c-0.6,0-1,0.4-1,1v1.5v7.7
			"/>
	</g>
</g>
</svg>
