<?xml version="1.0" encoding="utf-8"?>
<!-- Generator: Adobe Illustrator 19.0.0, SVG Export Plug-In . SVG Version: 6.00 Build 0)  -->
<svg version="1.1" id="Layer_1" xmlns="http://www.w3.org/2000/svg" xmlns:xlink="http://www.w3.org/1999/xlink" x="0px" y="0px"
	 viewBox="0 0 15.5 19.7" style="enable-background:new 0 0 15.5 19.7;" xml:space="preserve">
<style type="text/css">
	.st0{fill:#302F2F;}
	.st1{fill:none;stroke:#302F2F;stroke-miterlimit:10;}
</style>
<g id="XMLID_1_">
	<g id="XMLID_2_">
		<path id="XMLID_3_" class="st0" d="M12.5,4c0-0.6-0.4-1-1-1H1C0.4,3,0,3.4,0,4v6.7h3.8c0.3-1.1,1.2-1.9,2.4-1.9s2.1,0.8,2.4,1.9
			h3.8V4z"/>
		<path id="XMLID_7_" class="st0" d="M6.2,13.8c-1.2,0-2.1-0.8-2.4-1.9H0v6.7c0,0.6,0.4,1,1,1h10.5c0.6,0,1-0.4,1-1V12H8.6
			C8.4,13,7.4,13.8,6.2,13.8z"/>
	</g>
	<circle id="XMLID_9_" class="st0" cx="6.2" cy="11.3" r="1.2"/>
	<g id="XMLID_4_">
		<path id="XMLID_5_" class="st1" d="M2.5,16.2c0,0.6,0.4,1,1,1h10.5c0.6,0,1-0.4,1-1V1.5c0-0.6-0.4-1-1-1H3.5c-0.6,0-1,0.4-1,1V3
			v7.7"/>
	</g>
</g>
</svg>
