<?xml version="1.0" encoding="utf-8"?>
<!-- Generator: Adobe Illustrator 19.0.0, SVG Export Plug-In . SVG Version: 6.00 Build 0)  -->
<svg version="1.1" id="Layer_1" xmlns="http://www.w3.org/2000/svg" xmlns:xlink="http://www.w3.org/1999/xlink" x="0px" y="0px"
	 viewBox="0 0 300 188.7" style="enable-background:new 0 0 300 188.7;" xml:space="preserve">
<style type="text/css">
	.st0{fill:#393939;}
	.st1{fill:#FFFFFF;stroke:#000000;stroke-miterlimit:10;}
</style>
<path id="XMLID_3_" class="st0" d="M16.3,187.3c-33.8-3.9-6.5-44.7,4.8-58.8c18.1-22.4,38.7-43.2,59.8-62.8
	c10.8-10,21.8-19.6,33.2-28.9c11-9,22.2-18.3,34.5-25.5c12-7,25.7-12,39.7-11.3c13.6,0.6,26.1,6.8,37.2,14.4
	c14.9,10.2,28.6,21.9,40.6,35.4c9.3,10.5,17.5,22.1,25,33.9c4.4,6.9,9.8,15.3,8.8,23.9c-0.5,4.2-2.4,7.4-5.3,10.4
	c-6.8,6.9-16,11.7-24.5,16.1c-17.4,9.1-35.6,15.8-54.2,21.9c-28.8,9.4-58.1,16.9-87.8,22.5c-29.4,5.5-59.5,10.5-89.5,10.1
	C31.1,188.6,23.7,188.2,16.3,187.3C9.5,186.6,23.7,188.2,16.3,187.3z"/>
<path id="XMLID_2_" class="st1" d="M-151.6,128.1"/>
<path id="XMLID_9_" class="st1" d="M38.1,32.5"/>
</svg>
